<?xml version="1.0" encoding="utf-8"?>
<!-- Generator: Adobe Illustrator 22.1.0, SVG Export Plug-In . SVG Version: 6.00 Build 0)  -->
<svg version="1.1" id="Layer_1" xmlns="http://www.w3.org/2000/svg" xmlns:xlink="http://www.w3.org/1999/xlink" x="0px" y="0px"
	 viewBox="0 0 1920 1080" style="enable-background:new 0 0 1920 1080;" xml:space="preserve">
<style type="text/css">
	.st0{fill:url(#SVGID_1_);}
	.st1{fill:url(#SVGID_2_);}
	.st2{fill:url(#SVGID_3_);}
	.st3{fill:url(#SVGID_4_);}
	.st4{fill:url(#SVGID_5_);}
	.st5{fill:url(#SVGID_6_);}
	.st6{fill:url(#SVGID_7_);}
	.st7{fill:url(#SVGID_8_);}
</style>
<g>
	<linearGradient id="SVGID_1_" gradientUnits="userSpaceOnUse" x1="515.0035" y1="122.7035" x2="515.0035" y2="986.9162">
		<stop  offset="0" style="stop-color:#3775BB"/>
		<stop  offset="6.623122e-02" style="stop-color:#316EB4"/>
		<stop  offset="0.3389" style="stop-color:#1D539D"/>
		<stop  offset="0.5009" style="stop-color:#154A95"/>
		<stop  offset="1" style="stop-color:#606C7C"/>
	</linearGradient>
	<path class="st0" d="M497.6,967c-2.5-1.1-5-2.7-7.6-3.1c-50-8.6-81.6-40.2-104.5-82.9c-2.9-5.5-1.9-8.5,3.3-11.6
		c20.4-12.1,40.7-24.5,61.1-36.8c9,11.8,17.1,24,26.7,35c17.6,20.2,44.9,25.6,66.4,14.2c22.8-12.2,29.4-34.5,13-54.7
		c-13.8-17-30.9-31.6-47.6-46c-28.6-24.8-58.7-48.1-81.9-78.4c-19.5-25.4-29.3-53.9-23.6-86.6c1.1-6.2,3.3-8.6,9.7-8.8
		c42.4-1.5,84.7-3.4,127.1-5.2c29.8-1.3,59.7-2.5,89.5-3.7c2.1-0.1,4.2,0,9.5,0c-21.3,18.9-40.6,35.9-60.1,53.1
		c-7.9-8.7-14.7-17.1-22.6-24.6c-14.4-13.7-30.9-22-51.6-16.8c-20.4,5.1-28.1,23.5-14.8,39.8c11.5,14,25.7,25.9,39.1,38.3
		c30.2,27.8,64.7,50.9,90.4,83.5c32.7,41.6,36.3,96.1,7.9,140.4c-18.6,29-46.5,45.4-80.3,51.7c-3.6,0.7-7.1,2.2-10.6,3.4
		C523.3,967,510.4,967,497.6,967z"/>
	<linearGradient id="SVGID_2_" gradientUnits="userSpaceOnUse" x1="927.2361" y1="122.7035" x2="927.2361" y2="986.9162">
		<stop  offset="0" style="stop-color:#3775BB"/>
		<stop  offset="6.623122e-02" style="stop-color:#316EB4"/>
		<stop  offset="0.3389" style="stop-color:#1D539D"/>
		<stop  offset="0.5009" style="stop-color:#154A95"/>
		<stop  offset="1" style="stop-color:#606C7C"/>
	</linearGradient>
	<path class="st1" d="M1061.3,548.3c-31.2,1.5-60.4,2.5-89.5,4.5c-8.7,0.6-13.1-2.2-17.1-9.7c-22.1-42.3-44.8-84.3-67.2-126.5
		c-2.8-5.2-4.9-10.8-13.5-7.4c0,48.8,0,97.9,0,147.8c-31.8,1.5-62.8,2.9-94.3,4.4c0-145.6,0-290.7,0-435.7c0.8-0.5,1.4-1.1,1.9-1
		c54.9,1.1,109.8,1.3,164.7,3.6c30.9,1.3,60,10,83.9,31.7c25.7,23.4,39.9,52.6,43.4,86.6c3.1,29.9,1,59.5-13.4,87.2
		c-15.2,29.2-39.5,47.4-68.9,60c-2.6,1.1-5.4,1.9-8.1,3c-0.5,0.2-0.9,0.9-2.1,2.3C1007.4,448,1034,497.5,1061.3,548.3z M874.4,318.3
		c24.9-1.8,48.8-1.8,72-5.8c32.4-5.6,47.7-41,30.9-69.5c-4.6-7.9-12.3-15.8-20.5-19.3c-26.3-11.6-54.6-6.6-82.4-7.8
		C874.4,250.2,874.4,282.8,874.4,318.3z"/>
	<linearGradient id="SVGID_3_" gradientUnits="userSpaceOnUse" x1="473.1569" y1="122.7035" x2="473.1569" y2="986.9162">
		<stop  offset="0" style="stop-color:#3775BB"/>
		<stop  offset="6.623122e-02" style="stop-color:#316EB4"/>
		<stop  offset="0.3389" style="stop-color:#1D539D"/>
		<stop  offset="0.5009" style="stop-color:#154A95"/>
		<stop  offset="1" style="stop-color:#606C7C"/>
	</linearGradient>
	<path class="st2" d="M696.2,124.4c-10,27.7-19.6,54.5-29.3,81.2c-33.2,91.2-66.4,182.5-99.6,273.7c-10.3,28.3-20.8,56.5-30.8,84.9
		c-2,5.8-4.9,7.9-10.8,8.1c-35.6,1.4-71.2,3-106.8,4.9c-5.6,0.3-7.9-1.5-9.7-6.5C380.6,490.1,351.8,409.5,323,329
		c-23.5-65.8-47.1-131.5-70.7-197.3c-0.7-2-1.3-4.1-2.2-7.3c26.5,0,52.1,0,77.7,0c19.9,0,19.6,0.1,26.2,18.7
		c24.2,68.3,48.7,136.4,73.1,204.6c13.8,38.6,27.6,77.3,41.4,115.9c0.9,2.6,2,5.2,3.7,9.7c6.7-18,12.9-34.3,18.9-50.6
		c15.2-41.9,30.3-83.8,45.5-125.7c19.7-54.2,39.5-108.4,58.9-162.7c2.6-7.3,5.6-10.5,14.1-10.3C638.1,124.8,666.6,124.4,696.2,124.4
		z"/>
	<linearGradient id="SVGID_4_" gradientUnits="userSpaceOnUse" x1="912.7843" y1="122.7035" x2="912.7843" y2="986.9162">
		<stop  offset="0" style="stop-color:#3775BB"/>
		<stop  offset="6.623122e-02" style="stop-color:#316EB4"/>
		<stop  offset="0.3389" style="stop-color:#1D539D"/>
		<stop  offset="0.5009" style="stop-color:#154A95"/>
		<stop  offset="1" style="stop-color:#606C7C"/>
	</linearGradient>
	<path class="st3" d="M937.5,965.4c-16.2,0-32.3,0-48.5,0c-28.4-4.2-56.2-10.8-81.1-25.8c-65.5-39.3-103.9-96.5-110.7-172.9
		c-5.8-64,13.5-120.5,56.7-168.3c2.8-3.1,8.1-5.3,12.3-5.4c80.6-3.6,161.1-6.9,241.7-10.2c7.7-0.3,15.7,0.4,23-1.4
		c18.8-4.4,30.7,5.3,41.9,18.1c53.6,61.2,68,131.7,48.4,209.5c-20.2,80.1-91.9,143-174.1,154.8C943.8,964.2,940.7,964.9,937.5,965.4
		z M1046,736.6c-0.9-45.4-26-88.7-78-113.8c-42.3-20.4-85.2-17.4-125.2,7.2c-35,21.5-55.7,53.6-61,94.6c-6.1,47,2.4,89.7,38.3,123.7
		c43.3,41,109.6,50.3,157.8,21.2C1022.9,842.2,1045.9,801.8,1046,736.6z"/>
	<linearGradient id="SVGID_5_" gradientUnits="userSpaceOnUse" x1="1391.4653" y1="122.7035" x2="1391.4653" y2="986.9162">
		<stop  offset="0" style="stop-color:#3775BB"/>
		<stop  offset="6.623122e-02" style="stop-color:#316EB4"/>
		<stop  offset="0.3389" style="stop-color:#1D539D"/>
		<stop  offset="0.5009" style="stop-color:#154A95"/>
		<stop  offset="1" style="stop-color:#606C7C"/>
	</linearGradient>
	<path class="st4" d="M1631.8,203.6c-21.7,22.8-42.7,44.8-63.1,66.2c-15.5-12.1-29.1-24.5-44.4-34.2
		c-59.6-37.5-122.7-42.9-186.3-12.4c-57.1,27.4-93,84.7-91.2,152.1c2,75.7,57.3,138.2,125.7,157.4c0.8,0.2,1.6,0.6,4.9,1.9
		c-29.8,1.4-57,2.7-84.3,3.9c-22.5,1-44.9,1.7-67.4,3c-6.7,0.4-11-1.1-15.5-6.7c-66.5-82.3-79.1-196.6-27-289
		c43.9-78,112.1-122.6,202.3-131.4c51.7-5,102,0.6,150.3,20.1C1573.8,149.7,1604.9,174.6,1631.8,203.6z"/>
	<linearGradient id="SVGID_6_" gradientUnits="userSpaceOnUse" x1="1305.2638" y1="122.7035" x2="1305.2638" y2="986.9162">
		<stop  offset="0" style="stop-color:#3775BB"/>
		<stop  offset="6.623122e-02" style="stop-color:#316EB4"/>
		<stop  offset="0.3389" style="stop-color:#1D539D"/>
		<stop  offset="0.5009" style="stop-color:#154A95"/>
		<stop  offset="1" style="stop-color:#606C7C"/>
	</linearGradient>
	<path class="st5" d="M1200.9,575c69.2-2.9,138.4-5.9,208.7-8.8c0,16.7,0.3,32.6-0.4,48.6c-0.1,1.7-5.4,4.5-8.2,4.5
		c-35.4,0.3-70.7,0.2-106.1,0.2c-3.8,0-7.5,0-11.9,0c0,23.6,0,46.3,0,69.8c3.6,0,7,0,10.4,0c35.4,0,70.7,0.2,106.1-0.2
		c8.2-0.1,10.3,2.6,10.1,10.4c-0.5,20.2-0.6,40.5-0.1,60.7c0.2,8-2.1,10.4-10.2,10.4c-35.4-0.4-70.7-0.2-106.1-0.2
		c-3.4,0-6.9,0-10.7,0c0,44.2,0,87.2,0,130.2c0,15.8,0.3,31.5-0.3,47.2c-0.1,2.7-3.5,7.5-5.5,7.5c-25,0.5-50.1,0.3-76,0.3
		C1200.9,828.6,1200.9,702.1,1200.9,575z"/>
	<linearGradient id="SVGID_7_" gradientUnits="userSpaceOnUse" x1="1550.5333" y1="122.7035" x2="1550.5333" y2="986.9162">
		<stop  offset="0" style="stop-color:#3775BB"/>
		<stop  offset="6.623122e-02" style="stop-color:#316EB4"/>
		<stop  offset="0.3389" style="stop-color:#1D539D"/>
		<stop  offset="0.5009" style="stop-color:#154A95"/>
		<stop  offset="1" style="stop-color:#606C7C"/>
	</linearGradient>
	<path class="st6" d="M1507.1,621.1c-22,0-42.8-0.3-63.6,0.2c-7.7,0.2-10.1-2.1-9.8-9.8c0.6-15,0.2-30.1,0.2-46
		c77.5-3.2,154.4-6.4,232.8-9.6c0,11.2,0.2,22-0.1,32.7c-0.2,10.5,3,25-2.4,30.3c-5.6,5.4-20,2.1-30.5,2.2c-13.7,0.2-27.5,0-42.2,0
		c0,4.4,0,7.9,0,11.3c0,104.1-0.2,208.2,0.1,312.4c0,9-2.5,11.4-11.3,11.2c-20.9-0.6-41.8-0.6-62.7,0c-8.2,0.2-10.2-2.4-10.2-10.3
		c0.1-103.8-0.2-207.6-0.4-311.4C1507.1,630.4,1507.1,626.5,1507.1,621.1z"/>
	<linearGradient id="SVGID_8_" gradientUnits="userSpaceOnUse" x1="1543.7423" y1="122.7035" x2="1543.7423" y2="986.9162">
		<stop  offset="0" style="stop-color:#3775BB"/>
		<stop  offset="6.623122e-02" style="stop-color:#316EB4"/>
		<stop  offset="0.3389" style="stop-color:#1D539D"/>
		<stop  offset="0.5009" style="stop-color:#154A95"/>
		<stop  offset="1" style="stop-color:#606C7C"/>
	</linearGradient>
	<path class="st7" d="M1489.3,530c33.6-15.2,55.7-40.6,72.6-74.5c-25,0-48.5,0-71.9,0c-23.7,0-47.4,0-71.5,0c0-29.7,0-58.5,0-87.9
		c83,0,166,0,249.6,0c2.5,28.4,1.4,56.7-8.1,83.5c-8,22.8-19.3,44.5-29.7,66.4c-1.3,2.8-5.6,5.7-8.6,5.8
		C1577.5,525.8,1533.4,527.9,1489.3,530z"/>
</g>
</svg>
